<svg width="120" height="28" viewBox="0 0 120 28" fill="none" xmlns="http://www.w3.org/2000/svg">
<g clip-path="url(#clip0_280_17)">
<path d="M88.9484 5.66777H78.9551C77.4012 5.85531 75.9009 6.76623 75.0971 8.18619C74.0522 10.2759 74.0254 12.9015 73.9451 15.4199C74.1862 17.9652 74.5077 20.564 77.0261 21.6624L78.7676 22.1447H89.0556L89.0824 26.4313H78.071C74.4273 26.3778 70.8372 24.1005 69.4441 20.8587C67.4883 15.9826 67.5954 8.69523 70.998 4.62289C73.6504 1.72939 77.6155 1.24714 81.6075 1.35431H88.9484V5.66777Z" fill="white"/>
<path d="M22.4782 13.9732L11.4401 25.2257H0.294709L10.9578 13.9732L0 2.58673H11.2257L22.4782 13.9732Z" fill="#F3912D"/>
<path d="M37.0797 14.0536L26.2023 25.2793H14.9766L25.7468 14.0536L14.789 2.66711H26.0148L37.0797 14.0536Z" fill="white"/>
<path d="M63.8178 6.49832C63.2284 5.39986 62.3711 4.16744 61.2994 3.3369C57.2806 0.416603 51.0382 0.443395 46.3764 1.94373C43.349 3.06898 40.9645 5.9089 40.4019 8.93636C39.4642 13.3838 39.6517 18.7153 41.9558 22.4662C44.3403 26.4313 49.2967 27.1279 53.7977 27.0208C57.9504 26.9136 62.3711 25.2525 63.9518 21.3141C65.7468 17.081 65.7468 10.785 63.8178 6.49832ZM59.0757 18.0455C58.5399 19.8942 57.361 21.716 55.4052 22.3322C52.5653 23.1092 49.136 23.002 47.2873 20.43C45.4387 17.5901 45.4923 13.223 46.1889 9.7669C46.6979 7.86469 48.0911 6.04286 50.1273 5.50702C53.1547 4.78365 56.6376 5.23911 58.2451 8.05224C59.6383 10.8654 59.7723 14.8573 59.0757 18.0455Z" fill="white"/>
<path d="M114.695 15.9826L108.319 1.3811H102.719L92.0295 26.4045H97.6021L99.8794 20.4836H110.891L113.382 26.4313H119.169C117.723 22.9216 116.115 19.3583 114.695 15.9826ZM101.567 15.9558L105.265 6.44473L109.123 15.9558H101.567Z" fill="white"/>
</g>
<defs>
<clipPath id="clip0_280_17">
<rect width="120" height="26.0951" fill="white" transform="translate(0 0.952438)"/>
</clipPath>
</defs>
</svg>
